<svg xmlns="http://www.w3.org/2000/svg" version="1.1" xmlns:xlink="http://www.w3.org/1999/xlink" xmlns:svgjs="http://svgjs.com/svgjs" width="1920" height="1080" preserveAspectRatio="none" viewBox="0 0 1920 1080"><g mask="url(&quot;#SvgjsMask1305&quot;)" fill="none"><rect width="1920" height="1080" x="0" y="0" fill="url(#SvgjsLinearGradient1306)"></rect><use xlink:href="#SvgjsSymbol1313" x="0" y="0"></use><use xlink:href="#SvgjsSymbol1313" x="0" y="720"></use><use xlink:href="#SvgjsSymbol1313" x="720" y="0"></use><use xlink:href="#SvgjsSymbol1313" x="720" y="720"></use><use xlink:href="#SvgjsSymbol1313" x="1440" y="0"></use><use xlink:href="#SvgjsSymbol1313" x="1440" y="720"></use></g><defs><mask id="SvgjsMask1305"><rect width="1920" height="1080" fill="#ffffff"></rect></mask><linearGradient x1="10.94%" y1="-19.44%" x2="89.06%" y2="119.44%" gradientUnits="userSpaceOnUse" id="SvgjsLinearGradient1306"><stop stop-color="#0e2a47" offset="0"></stop><stop stop-color="rgba(15, 51, 98, 1)" offset="1"></stop></linearGradient><path d="M-1 0 a1 1 0 1 0 2 0 a1 1 0 1 0 -2 0z" id="SvgjsPath1311"></path><path d="M-3 0 a3 3 0 1 0 6 0 a3 3 0 1 0 -6 0z" id="SvgjsPath1308"></path><path d="M-5 0 a5 5 0 1 0 10 0 a5 5 0 1 0 -10 0z" id="SvgjsPath1309"></path><path d="M2 -2 L-2 2z" id="SvgjsPath1310"></path><path d="M6 -6 L-6 6z" id="SvgjsPath1307"></path><path d="M30 -30 L-30 30z" id="SvgjsPath1312"></path></defs><symbol id="SvgjsSymbol1313"><use xlink:href="#SvgjsPath1307" x="30" y="30" stroke="rgba(168, 169, 177, 1)"></use><use xlink:href="#SvgjsPath1307" x="30" y="90" stroke="rgba(168, 169, 177, 1)"></use><use xlink:href="#SvgjsPath1308" x="30" y="150" stroke="rgba(168, 169, 177, 1)"></use><use xlink:href="#SvgjsPath1307" x="30" y="210" stroke="rgba(168, 169, 177, 1)"></use><use xlink:href="#SvgjsPath1309" x="30" y="270" stroke="rgba(168, 169, 177, 1)"></use><use xlink:href="#SvgjsPath1307" x="30" y="330" stroke="rgba(168, 169, 177, 1)"></use><use xlink:href="#SvgjsPath1307" x="30" y="390" stroke="rgba(168, 169, 177, 1)"></use><use xlink:href="#SvgjsPath1307" x="30" y="450" stroke="rgba(168, 169, 177, 1)"></use><use xlink:href="#SvgjsPath1308" x="30" y="510" stroke="rgba(168, 169, 177, 1)"></use><use xlink:href="#SvgjsPath1310" x="30" y="570" stroke="rgba(168, 169, 177, 1)"></use><use xlink:href="#SvgjsPath1307" x="30" y="630" stroke="rgba(168, 169, 177, 1)"></use><use xlink:href="#SvgjsPath1308" x="30" y="690" stroke="rgba(168, 169, 177, 1)"></use><use xlink:href="#SvgjsPath1308" x="90" y="30" stroke="rgba(168, 169, 177, 1)"></use><use xlink:href="#SvgjsPath1309" x="90" y="90" stroke="rgba(168, 169, 177, 1)"></use><use xlink:href="#SvgjsPath1308" x="90" y="150" stroke="rgba(168, 169, 177, 1)"></use><use xlink:href="#SvgjsPath1307" x="90" y="210" stroke="rgba(168, 169, 177, 1)"></use><use xlink:href="#SvgjsPath1308" x="90" y="270" stroke="rgba(168, 169, 177, 1)"></use><use xlink:href="#SvgjsPath1307" x="90" y="330" stroke="rgba(168, 169, 177, 1)"></use><use xlink:href="#SvgjsPath1311" x="90" y="390" stroke="rgba(168, 169, 177, 1)"></use><use xlink:href="#SvgjsPath1311" x="90" y="450" stroke="rgba(168, 169, 177, 1)"></use><use xlink:href="#SvgjsPath1310" x="90" y="510" stroke="rgba(168, 169, 177, 1)"></use><use xlink:href="#SvgjsPath1307" x="90" y="570" stroke="rgba(168, 169, 177, 1)"></use><use xlink:href="#SvgjsPath1311" x="90" y="630" stroke="rgba(168, 169, 177, 1)"></use><use xlink:href="#SvgjsPath1309" x="90" y="690" stroke="rgba(168, 169, 177, 1)"></use><use xlink:href="#SvgjsPath1307" x="150" y="30" stroke="rgba(168, 169, 177, 1)"></use><use xlink:href="#SvgjsPath1309" x="150" y="90" stroke="rgba(168, 169, 177, 1)"></use><use xlink:href="#SvgjsPath1308" x="150" y="150" stroke="rgba(168, 169, 177, 1)"></use><use xlink:href="#SvgjsPath1309" x="150" y="210" stroke="rgba(168, 169, 177, 1)"></use><use xlink:href="#SvgjsPath1311" x="150" y="270" stroke="rgba(168, 169, 177, 1)"></use><use xlink:href="#SvgjsPath1307" x="150" y="330" stroke="rgba(168, 169, 177, 1)"></use><use xlink:href="#SvgjsPath1309" x="150" y="390" stroke="rgba(168, 169, 177, 1)"></use><use xlink:href="#SvgjsPath1310" x="150" y="450" stroke="rgba(168, 169, 177, 1)"></use><use xlink:href="#SvgjsPath1309" x="150" y="510" stroke="rgba(168, 169, 177, 1)"></use><use xlink:href="#SvgjsPath1309" x="150" y="570" stroke="rgba(168, 169, 177, 1)"></use><use xlink:href="#SvgjsPath1307" x="150" y="630" stroke="rgba(168, 169, 177, 1)"></use><use xlink:href="#SvgjsPath1310" x="150" y="690" stroke="rgba(168, 169, 177, 1)"></use><use xlink:href="#SvgjsPath1309" x="210" y="30" stroke="rgba(168, 169, 177, 1)"></use><use xlink:href="#SvgjsPath1308" x="210" y="90" stroke="rgba(168, 169, 177, 1)"></use><use xlink:href="#SvgjsPath1309" x="210" y="150" stroke="rgba(168, 169, 177, 1)"></use><use xlink:href="#SvgjsPath1310" x="210" y="210" stroke="rgba(168, 169, 177, 1)"></use><use xlink:href="#SvgjsPath1309" x="210" y="270" stroke="rgba(168, 169, 177, 1)"></use><use xlink:href="#SvgjsPath1307" x="210" y="330" stroke="rgba(168, 169, 177, 1)"></use><use xlink:href="#SvgjsPath1309" x="210" y="390" stroke="rgba(168, 169, 177, 1)"></use><use xlink:href="#SvgjsPath1308" x="210" y="450" stroke="rgba(168, 169, 177, 1)"></use><use xlink:href="#SvgjsPath1310" x="210" y="510" stroke="rgba(168, 169, 177, 1)"></use><use xlink:href="#SvgjsPath1308" x="210" y="570" stroke="rgba(168, 169, 177, 1)"></use><use xlink:href="#SvgjsPath1307" x="210" y="630" stroke="rgba(168, 169, 177, 1)"></use><use xlink:href="#SvgjsPath1311" x="210" y="690" stroke="rgba(168, 169, 177, 1)"></use><use xlink:href="#SvgjsPath1311" x="270" y="30" stroke="rgba(168, 169, 177, 1)"></use><use xlink:href="#SvgjsPath1308" x="270" y="90" stroke="rgba(168, 169, 177, 1)"></use><use xlink:href="#SvgjsPath1310" x="270" y="150" stroke="rgba(168, 169, 177, 1)"></use><use xlink:href="#SvgjsPath1310" x="270" y="210" stroke="rgba(168, 169, 177, 1)"></use><use xlink:href="#SvgjsPath1308" x="270" y="270" stroke="rgba(168, 169, 177, 1)"></use><use xlink:href="#SvgjsPath1307" x="270" y="330" stroke="rgba(168, 169, 177, 1)"></use><use xlink:href="#SvgjsPath1309" x="270" y="390" stroke="rgba(168, 169, 177, 1)"></use><use xlink:href="#SvgjsPath1310" x="270" y="450" stroke="rgba(168, 169, 177, 1)"></use><use xlink:href="#SvgjsPath1311" x="270" y="510" stroke="rgba(168, 169, 177, 1)"></use><use xlink:href="#SvgjsPath1312" x="270" y="570" stroke="rgba(168, 169, 177, 1)" stroke-width="3"></use><use xlink:href="#SvgjsPath1309" x="270" y="630" stroke="rgba(168, 169, 177, 1)"></use><use xlink:href="#SvgjsPath1307" x="270" y="690" stroke="rgba(168, 169, 177, 1)"></use><use xlink:href="#SvgjsPath1308" x="330" y="30" stroke="rgba(168, 169, 177, 1)"></use><use xlink:href="#SvgjsPath1310" x="330" y="90" stroke="rgba(168, 169, 177, 1)"></use><use xlink:href="#SvgjsPath1308" x="330" y="150" stroke="rgba(168, 169, 177, 1)"></use><use xlink:href="#SvgjsPath1310" x="330" y="210" stroke="rgba(168, 169, 177, 1)"></use><use xlink:href="#SvgjsPath1307" x="330" y="270" stroke="rgba(168, 169, 177, 1)"></use><use xlink:href="#SvgjsPath1309" x="330" y="330" stroke="rgba(168, 169, 177, 1)"></use><use xlink:href="#SvgjsPath1307" x="330" y="390" stroke="rgba(168, 169, 177, 1)"></use><use xlink:href="#SvgjsPath1310" x="330" y="450" stroke="rgba(168, 169, 177, 1)"></use><use xlink:href="#SvgjsPath1309" x="330" y="510" stroke="rgba(168, 169, 177, 1)"></use><use xlink:href="#SvgjsPath1307" x="330" y="570" stroke="rgba(168, 169, 177, 1)"></use><use xlink:href="#SvgjsPath1308" x="330" y="630" stroke="rgba(168, 169, 177, 1)"></use><use xlink:href="#SvgjsPath1309" x="330" y="690" stroke="rgba(168, 169, 177, 1)"></use><use xlink:href="#SvgjsPath1309" x="390" y="30" stroke="rgba(168, 169, 177, 1)"></use><use xlink:href="#SvgjsPath1311" x="390" y="90" stroke="rgba(168, 169, 177, 1)"></use><use xlink:href="#SvgjsPath1309" x="390" y="150" stroke="rgba(168, 169, 177, 1)"></use><use xlink:href="#SvgjsPath1307" x="390" y="210" stroke="rgba(168, 169, 177, 1)"></use><use xlink:href="#SvgjsPath1310" x="390" y="270" stroke="rgba(168, 169, 177, 1)"></use><use xlink:href="#SvgjsPath1311" x="390" y="330" stroke="rgba(168, 169, 177, 1)"></use><use xlink:href="#SvgjsPath1307" x="390" y="390" stroke="rgba(168, 169, 177, 1)"></use><use xlink:href="#SvgjsPath1308" x="390" y="450" stroke="rgba(168, 169, 177, 1)"></use><use xlink:href="#SvgjsPath1311" x="390" y="510" stroke="rgba(168, 169, 177, 1)"></use><use xlink:href="#SvgjsPath1309" x="390" y="570" stroke="rgba(168, 169, 177, 1)"></use><use xlink:href="#SvgjsPath1307" x="390" y="630" stroke="rgba(168, 169, 177, 1)"></use><use xlink:href="#SvgjsPath1311" x="390" y="690" stroke="rgba(168, 169, 177, 1)"></use><use xlink:href="#SvgjsPath1307" x="450" y="30" stroke="rgba(168, 169, 177, 1)"></use><use xlink:href="#SvgjsPath1310" x="450" y="90" stroke="rgba(168, 169, 177, 1)"></use><use xlink:href="#SvgjsPath1307" x="450" y="150" stroke="rgba(168, 169, 177, 1)"></use><use xlink:href="#SvgjsPath1309" x="450" y="210" stroke="rgba(168, 169, 177, 1)"></use><use xlink:href="#SvgjsPath1308" x="450" y="270" stroke="rgba(168, 169, 177, 1)"></use><use xlink:href="#SvgjsPath1312" x="450" y="330" stroke="rgba(168, 169, 177, 1)" stroke-width="3"></use><use xlink:href="#SvgjsPath1308" x="450" y="390" stroke="rgba(168, 169, 177, 1)"></use><use xlink:href="#SvgjsPath1307" x="450" y="450" stroke="rgba(168, 169, 177, 1)"></use><use xlink:href="#SvgjsPath1307" x="450" y="510" stroke="rgba(168, 169, 177, 1)"></use><use xlink:href="#SvgjsPath1311" x="450" y="570" stroke="rgba(168, 169, 177, 1)"></use><use xlink:href="#SvgjsPath1311" x="450" y="630" stroke="rgba(168, 169, 177, 1)"></use><use xlink:href="#SvgjsPath1310" x="450" y="690" stroke="rgba(168, 169, 177, 1)"></use><use xlink:href="#SvgjsPath1310" x="510" y="30" stroke="rgba(168, 169, 177, 1)"></use><use xlink:href="#SvgjsPath1307" x="510" y="90" stroke="rgba(168, 169, 177, 1)"></use><use xlink:href="#SvgjsPath1309" x="510" y="150" stroke="rgba(168, 169, 177, 1)"></use><use xlink:href="#SvgjsPath1307" x="510" y="210" stroke="rgba(168, 169, 177, 1)"></use><use xlink:href="#SvgjsPath1311" x="510" y="270" stroke="rgba(168, 169, 177, 1)"></use><use xlink:href="#SvgjsPath1308" x="510" y="330" stroke="rgba(168, 169, 177, 1)"></use><use xlink:href="#SvgjsPath1311" x="510" y="390" stroke="rgba(168, 169, 177, 1)"></use><use xlink:href="#SvgjsPath1308" x="510" y="450" stroke="rgba(168, 169, 177, 1)"></use><use xlink:href="#SvgjsPath1310" x="510" y="510" stroke="rgba(168, 169, 177, 1)"></use><use xlink:href="#SvgjsPath1309" x="510" y="570" stroke="rgba(168, 169, 177, 1)"></use><use xlink:href="#SvgjsPath1310" x="510" y="630" stroke="rgba(168, 169, 177, 1)"></use><use xlink:href="#SvgjsPath1307" x="510" y="690" stroke="rgba(168, 169, 177, 1)"></use><use xlink:href="#SvgjsPath1309" x="570" y="30" stroke="rgba(168, 169, 177, 1)"></use><use xlink:href="#SvgjsPath1312" x="570" y="90" stroke="rgba(168, 169, 177, 1)" stroke-width="3"></use><use xlink:href="#SvgjsPath1308" x="570" y="150" stroke="rgba(168, 169, 177, 1)"></use><use xlink:href="#SvgjsPath1307" x="570" y="210" stroke="rgba(168, 169, 177, 1)"></use><use xlink:href="#SvgjsPath1307" x="570" y="270" stroke="rgba(168, 169, 177, 1)"></use><use xlink:href="#SvgjsPath1309" x="570" y="330" stroke="rgba(168, 169, 177, 1)"></use><use xlink:href="#SvgjsPath1310" x="570" y="390" stroke="rgba(168, 169, 177, 1)"></use><use xlink:href="#SvgjsPath1307" x="570" y="450" stroke="rgba(168, 169, 177, 1)"></use><use xlink:href="#SvgjsPath1309" x="570" y="510" stroke="rgba(168, 169, 177, 1)"></use><use xlink:href="#SvgjsPath1309" x="570" y="570" stroke="rgba(168, 169, 177, 1)"></use><use xlink:href="#SvgjsPath1307" x="570" y="630" stroke="rgba(168, 169, 177, 1)"></use><use xlink:href="#SvgjsPath1309" x="570" y="690" stroke="rgba(168, 169, 177, 1)"></use><use xlink:href="#SvgjsPath1307" x="630" y="30" stroke="rgba(168, 169, 177, 1)"></use><use xlink:href="#SvgjsPath1307" x="630" y="90" stroke="rgba(168, 169, 177, 1)"></use><use xlink:href="#SvgjsPath1311" x="630" y="150" stroke="rgba(168, 169, 177, 1)"></use><use xlink:href="#SvgjsPath1310" x="630" y="210" stroke="rgba(168, 169, 177, 1)"></use><use xlink:href="#SvgjsPath1308" x="630" y="270" stroke="rgba(168, 169, 177, 1)"></use><use xlink:href="#SvgjsPath1307" x="630" y="330" stroke="rgba(168, 169, 177, 1)"></use><use xlink:href="#SvgjsPath1310" x="630" y="390" stroke="rgba(168, 169, 177, 1)"></use><use xlink:href="#SvgjsPath1311" x="630" y="450" stroke="rgba(168, 169, 177, 1)"></use><use xlink:href="#SvgjsPath1309" x="630" y="510" stroke="rgba(168, 169, 177, 1)"></use><use xlink:href="#SvgjsPath1310" x="630" y="570" stroke="rgba(168, 169, 177, 1)"></use><use xlink:href="#SvgjsPath1311" x="630" y="630" stroke="rgba(168, 169, 177, 1)"></use><use xlink:href="#SvgjsPath1307" x="630" y="690" stroke="rgba(168, 169, 177, 1)"></use><use xlink:href="#SvgjsPath1311" x="690" y="30" stroke="rgba(168, 169, 177, 1)"></use><use xlink:href="#SvgjsPath1312" x="690" y="90" stroke="rgba(168, 169, 177, 1)" stroke-width="3"></use><use xlink:href="#SvgjsPath1308" x="690" y="150" stroke="rgba(168, 169, 177, 1)"></use><use xlink:href="#SvgjsPath1307" x="690" y="210" stroke="rgba(168, 169, 177, 1)"></use><use xlink:href="#SvgjsPath1307" x="690" y="270" stroke="rgba(168, 169, 177, 1)"></use><use xlink:href="#SvgjsPath1309" x="690" y="330" stroke="rgba(168, 169, 177, 1)"></use><use xlink:href="#SvgjsPath1307" x="690" y="390" stroke="rgba(168, 169, 177, 1)"></use><use xlink:href="#SvgjsPath1307" x="690" y="450" stroke="rgba(168, 169, 177, 1)"></use><use xlink:href="#SvgjsPath1308" x="690" y="510" stroke="rgba(168, 169, 177, 1)"></use><use xlink:href="#SvgjsPath1311" x="690" y="570" stroke="rgba(168, 169, 177, 1)"></use><use xlink:href="#SvgjsPath1307" x="690" y="630" stroke="rgba(168, 169, 177, 1)"></use><use xlink:href="#SvgjsPath1310" x="690" y="690" stroke="rgba(168, 169, 177, 1)"></use></symbol></svg>